<?xml version="1.0" encoding="utf-8"?>
<!-- Generator: Adobe Illustrator 15.1.0, SVG Export Plug-In . SVG Version: 6.00 Build 0)  -->
<!DOCTYPE svg PUBLIC "-//W3C//DTD SVG 1.1//EN" "http://www.w3.org/Graphics/SVG/1.1/DTD/svg11.dtd">
<svg version="1.1" id="Layer_1" xmlns="http://www.w3.org/2000/svg" xmlns:xlink="http://www.w3.org/1999/xlink" x="0px" y="0px"
	 width="56.69px" height="56.69px" viewBox="0 0 56.69 56.69" enable-background="new 0 0 56.69 56.69" xml:space="preserve">
<path d="M31.885,50.818h-9.672V30.666h-5.328v-9.255h5.328v-5.197c0-4.771,2.985-10.342,11.401-10.342
	c2.967,0,5.145,0.278,5.236,0.29l0.893,0.116l-0.215,8.661l-0.984-0.009c-0.002,0-2.213-0.021-4.625-0.021
	c-1.795,0-2.033,0.443-2.033,2.205v4.299h7.922l-0.439,9.255h-7.482V50.818z M24.212,48.818h5.672V28.667h7.574l0.25-5.256h-7.824
	v-6.299c0-2.08,0.479-4.205,4.033-4.205c1.428,0,2.785,0.007,3.658,0.014l0.121-4.869c-0.883-0.079-2.352-0.18-4.084-0.18
	c-6.931,0-9.401,4.309-9.401,8.342v7.197h-5.328v5.256h5.328V48.818z"/>
</svg>
