<?xml version="1.0" encoding="utf-8"?>
<!-- Generator: Adobe Illustrator 15.1.0, SVG Export Plug-In . SVG Version: 6.00 Build 0)  -->
<!DOCTYPE svg PUBLIC "-//W3C//DTD SVG 1.1//EN" "http://www.w3.org/Graphics/SVG/1.1/DTD/svg11.dtd">
<svg version="1.1" id="Layer_1" xmlns="http://www.w3.org/2000/svg" xmlns:xlink="http://www.w3.org/1999/xlink" x="0px" y="0px"
	 width="56.689px" height="56.689px" viewBox="0 0 56.689 56.689" enable-background="new 0 0 56.689 56.689" xml:space="preserve">
<path d="M17.494,50.753H6.592v-30.6h10.902V50.753z M8.592,48.753h6.902v-26.6H8.592V48.753z M12.045,18.243
	c-3.396,0-6.16-2.761-6.16-6.154c0-3.393,2.764-6.152,6.16-6.152c3.395,0,6.156,2.76,6.156,6.152
	C18.201,15.483,15.44,18.243,12.045,18.243z M12.045,7.937c-2.294,0-4.16,1.863-4.16,4.152c0,2.291,1.866,4.154,4.16,4.154
	c2.292,0,4.156-1.864,4.156-4.154C16.201,9.8,14.337,7.937,12.045,7.937z M50.805,50.753H39.918V35.847
	c0-4.461-0.542-6.584-3.625-6.584c-3.119,0-4.334,1.778-4.334,6.342v15.148H21.076v-30.6h10.525v2.165
	c1.676-1.579,4.216-2.875,7.537-2.875c10.28,0,11.666,7.393,11.666,14.625V50.753z M41.918,48.753h6.887V34.068
	c0-7.794-1.617-12.625-9.666-12.625c-3.97,0-6.538,2.201-7.531,4.085l-0.281,0.534h-1.725v-3.908h-6.525v26.6h6.883V35.605
	c0-2.281,0-8.342,6.334-8.342c5.625,0,5.625,5.584,5.625,8.584V48.753z"/>
</svg>
