<?xml version="1.0" encoding="utf-8"?>
<!-- Generator: Adobe Illustrator 15.1.0, SVG Export Plug-In . SVG Version: 6.00 Build 0)  -->
<!DOCTYPE svg PUBLIC "-//W3C//DTD SVG 1.1//EN" "http://www.w3.org/Graphics/SVG/1.1/DTD/svg11.dtd">
<svg version="1.1" id="Layer_1" xmlns="http://www.w3.org/2000/svg" xmlns:xlink="http://www.w3.org/1999/xlink" x="0px" y="0px"
	 width="56.69px" height="56.69px" viewBox="0 0 56.69 56.69" enable-background="new 0 0 56.69 56.69" xml:space="preserve">
<path d="M18.949,48.894c-5.148,0-10.248-1.425-14.747-4.12l-3.208-1.921l3.738,0.063c0.121,0.006,0.316,0.016,0.623,0.016
	c1.423,0,5.956-0.229,10.604-2.852c-3.494-1.039-6.381-3.74-7.57-7.276l-0.589-1.751l1.604,0.417
	c-2.571-1.975-4.253-5.011-4.437-8.395l-0.088-1.62l1.487,0.649c0.271,0.119,0.547,0.224,0.827,0.315
	c-2.112-2.956-3.39-7.524-0.725-12.376l0.734-1.337l0.933,1.207c4.47,5.779,11.098,9.303,18.326,9.787
	c-0.044-0.449-0.075-0.862-0.075-0.991c0-5.364,4.082-10.912,10.912-10.912c2.867,0,5.627,1.139,7.66,3.144
	c2.725-0.64,5.329-2.229,5.357-2.246l2.362-1.454l-0.892,2.627c-0.428,1.258-1.08,2.417-1.916,3.429
	c0.456-0.149,0.904-0.32,1.365-0.521l2.837-1.386l-1.192,2.56c-0.984,2.115-2.625,3.86-4.663,4.976
	c0.448,7.001-2.431,14.812-7.61,20.548c-3.844,4.259-10.69,9.349-21.475,9.418L18.949,48.894z M8.438,44.703
	c3.334,1.439,6.91,2.19,10.51,2.19l0.171-0.001c10.056-0.064,16.429-4.798,20.003-8.758c4.984-5.521,7.686-13.07,7.05-19.702
	l-0.067-0.704l0.64-0.298c1.015-0.473,1.924-1.13,2.687-1.929c-0.854,0.216-1.765,0.377-2.815,0.504l-0.767,0.093l-0.598-1.516
	l0.696-0.536c0.975-0.571,1.825-1.315,2.512-2.186c-1.087,0.463-2.37,0.916-3.653,1.155l-0.548,0.102l-0.375-0.412
	c-1.686-1.85-4.085-2.91-6.585-2.91c-5.578,0-8.912,4.531-8.912,8.912c0,0.265,0.132,1.471,0.179,1.781l0.454,1.291l-1.444-0.031
	c-7.74-0.167-14.941-3.559-19.996-9.364c-2,5.252,1.358,9.448,2.962,10.705l2.345,1.839l-2.979-0.052
	c-0.933-0.016-1.846-0.143-2.731-0.379c0.787,3.51,3.561,6.33,7.165,7.104l3.945,0.848l-3.884,1.093
	c-0.677,0.19-1.445,0.286-2.283,0.286c-0.392,0-0.767-0.021-1.113-0.053c1.562,2.75,4.471,4.598,7.689,4.755l2.812,0.138
	l-2.268,1.667C15.353,43.194,11.321,44.295,8.438,44.703z"/>
</svg>
