<svg width="80" height="43.00000000000001" xmlns="http://www.w3.org/2000/svg">

 <g>
  <title>background</title>
  <rect fill="none" id="canvas_background" height="402" width="582" y="-1" x="-1"/>
 </g>
 <g>
  <title>Layer 1</title>
  <path id="svg_1" fill="#afb1b8" d="m12.402,12.8306l-0.0028,0c-2.2623,0 -4.09622,1.7871 -4.09622,3.9917l0,0.0026c0,2.2046 1.83392,3.9918 4.09622,3.9918l0.0028,0c2.2623,0 4.0962,-1.7872 4.0962,-3.9918l0,-0.0026c0,-2.2046 -1.8339,-3.9917 -4.0962,-3.9917z"/>
  <path id="svg_2" fill="#afb1b8" d="m42.6368,11.5545c-0.0064,-3.06208 -1.2573,-5.99698 -3.4789,-8.16243c-2.2216,-2.16546 -5.2329,-3.38512 -8.3751,-3.39207l0,0c-3.1431,0.00556 -6.1559,1.22461 -8.3787,3.39022c-2.2227,2.1656 -3.4743,5.10129 -3.4808,8.16428l0,16.8857c0,0 23.7108,-2.5735 23.7135,-16.8831l0,-0.0026z"/>
  <path id="svg_3" fill="#afb1b8" d="m0,33.9823c0.0057,2.1306 0.87656,4.1724 2.42228,5.6792c1.54571,1.5068 3.64062,2.3562 5.82695,2.3624c2.18587,-0.0062 4.28037,-0.8552 5.82597,-2.3614c1.5457,-1.5063 2.4168,-3.5474 2.4233,-5.6776l0,-11.7493c0,0 -16.4985,1.792 -16.4985,11.7467zm8.24923,2.1051c-0.42725,0 -0.8449,-0.1234 -1.20014,-0.3548c-0.35524,-0.2313 -0.63212,-0.56 -0.79562,-0.9447c-0.1635,-0.3847 -0.20628,-0.8079 -0.12293,-1.2163c0.08336,-0.4084 0.28909,-0.7835 0.5912,-1.0779c0.30211,-0.2944 0.68702,-0.4949 1.10606,-0.5761c0.41903,-0.0812 0.85337,-0.0395 1.2481,0.1198c0.39472,0.1593 0.7321,0.4291 0.9695,0.7753c0.2373,0.3462 0.364,0.7532 0.364,1.1696c0.0011,0.2771 -0.054,0.5517 -0.1621,0.808c-0.1081,0.2563 -0.26702,0.4893 -0.46772,0.6857c-0.20069,0.1963 -0.43919,0.352 -0.70181,0.4583c-0.26261,0.1063 -0.54418,0.161 -0.82854,0.161l0,-0.0079z"/>
  <path id="svg_4" fill="#afb1b8" d="m25.0891,34.7812l-1.6875,0l0,1.7432l-0.8789,0l0,-4.2656l2.7773,0l0,0.7119l-1.8984,0l0,1.1016l1.6875,0l0,0.7089zm4.2246,-0.2929c0,0.4199 -0.0742,0.7881 -0.2226,1.1045c-0.1485,0.3164 -0.3614,0.5605 -0.6387,0.7324c-0.2754,0.1719 -0.5918,0.2578 -0.9492,0.2578c-0.3535,0 -0.669,-0.085 -0.9463,-0.2549c-0.2774,-0.1699 -0.4922,-0.4121 -0.6445,-0.7265c-0.1524,-0.3164 -0.2295,-0.6797 -0.2315,-1.0899l0,-0.2109c0,-0.4199 0.0752,-0.7891 0.2256,-1.1074c0.1523,-0.3204 0.3662,-0.5655 0.6416,-0.7354c0.2773,-0.1719 0.5937,-0.2578 0.9492,-0.2578c0.3555,0 0.6709,0.0859 0.9463,0.2578c0.2773,0.1699 0.4912,0.415 0.6416,0.7354c0.1523,0.3183 0.2285,0.6865 0.2285,1.1045l0,0.1904zm-0.8906,-0.1934c0,-0.4472 -0.0801,-0.7871 -0.2402,-1.0195c-0.1602,-0.2324 -0.3887,-0.3486 -0.6856,-0.3486c-0.2949,0 -0.5224,0.1152 -0.6826,0.3457c-0.1602,0.2285 -0.2412,0.5644 -0.2432,1.0078l0,0.208c0,0.4355 0.0801,0.7734 0.2403,1.0137c0.1601,0.2402 0.3906,0.3603 0.6914,0.3603c0.2949,0 0.5215,-0.1152 0.6797,-0.3457c0.1582,-0.2324 0.2382,-0.5703 0.2402,-1.0137l0,-0.208zm3.7412,1.1104c0,-0.166 -0.0586,-0.293 -0.1758,-0.3809c-0.1172,-0.0898 -0.3281,-0.1836 -0.6328,-0.2812c-0.3047,-0.0996 -0.5459,-0.1973 -0.7236,-0.293c-0.4844,-0.2617 -0.7266,-0.6143 -0.7266,-1.0576c0,-0.2305 0.0645,-0.4356 0.1934,-0.6153c0.1308,-0.1816 0.3174,-0.3232 0.5595,-0.4248c0.2442,-0.1015 0.5176,-0.1523 0.8204,-0.1523c0.3046,0 0.5761,0.0557 0.8144,0.167c0.2383,0.1094 0.4229,0.2646 0.5537,0.4658c0.1328,0.2012 0.1992,0.4297 0.1992,0.6856l-0.8789,0c0,-0.1954 -0.0615,-0.3467 -0.1845,-0.4541c-0.1231,-0.1094 -0.2959,-0.1641 -0.5186,-0.1641c-0.2148,0 -0.3818,0.0459 -0.501,0.1377c-0.1191,0.0898 -0.1787,0.209 -0.1787,0.3574c0,0.1387 0.0694,0.2549 0.208,0.3486c0.1407,0.0938 0.3467,0.1817 0.6182,0.2637c0.5,0.1504 0.8643,0.3369 1.0928,0.5596c0.2285,0.2226 0.3427,0.5 0.3427,0.832c0,0.3692 -0.1396,0.6592 -0.4189,0.8701c-0.2793,0.209 -0.6553,0.3135 -1.1279,0.3135c-0.3282,0 -0.627,-0.0596 -0.8965,-0.1787c-0.2695,-0.1211 -0.4756,-0.2861 -0.6182,-0.4951c-0.1406,-0.209 -0.2109,-0.4512 -0.2109,-0.7266l0.8818,0c0,0.4707 0.2813,0.7061 0.8438,0.7061c0.209,0 0.372,-0.042 0.4892,-0.126c0.1172,-0.0859 0.1758,-0.2051 0.1758,-0.3574zm4.6904,-2.4346l-1.3066,0l0,3.5537l-0.8789,0l0,-3.5537l-1.2891,0l0,-0.7119l3.4746,0l0,0.7119zm3.0703,1.7051l-1.6875,0l0,1.1426l1.9805,0l0,0.706l-2.8594,0l0,-4.2656l2.8536,0l0,0.7119l-1.9747,0l0,1.0166l1.6875,0l0,0.6885zm2.3877,0.2871l-0.7002,0l0,1.5615l-0.8789,0l0,-4.2656l1.585,0c0.5039,0 0.8926,0.1123 1.166,0.3369c0.2735,0.2246 0.4102,0.542 0.4102,0.9522c0,0.291 -0.0635,0.5341 -0.1905,0.7294c-0.125,0.1934 -0.3154,0.3477 -0.5712,0.4629l0.9228,1.7432l0,0.041l-0.9434,0l-0.7998,-1.5615zm-0.7002,-0.7119l0.709,0c0.2207,0 0.3916,-0.0557 0.5127,-0.167c0.1211,-0.1133 0.1817,-0.2686 0.1817,-0.4658c0,-0.2012 -0.0576,-0.3594 -0.1729,-0.4746c-0.1133,-0.1153 -0.2881,-0.1729 -0.5244,-0.1729l-0.7061,0l0,1.2803zm5.3262,0.7705l0,1.5029l-0.8789,0l0,-4.2656l1.6641,0c0.3203,0 0.6015,0.0586 0.8437,0.1758c0.2442,0.1172 0.4317,0.2842 0.5625,0.5009c0.1309,0.2149 0.1963,0.46 0.1963,0.7354c0,0.418 -0.1435,0.748 -0.4306,0.9902c-0.2852,0.2403 -0.6807,0.3604 -1.1866,0.3604l-0.7705,0zm0,-0.7119l0.7852,0c0.2324,0 0.4092,-0.0547 0.5303,-0.1641c0.123,-0.1094 0.1845,-0.2656 0.1845,-0.4687c0,-0.209 -0.0615,-0.378 -0.1845,-0.5069c-0.1231,-0.1289 -0.293,-0.1953 -0.5098,-0.1992l-0.8057,0l0,1.3389zm5.5606,0.3662l-1.6875,0l0,1.1426l1.9804,0l0,0.706l-2.8593,0l0,-4.2656l2.8535,0l0,0.7119l-1.9746,0l0,1.0166l1.6875,0l0,0.6885zm4.0781,-1.7051l-1.3066,0l0,3.5537l-0.879,0l0,-3.5537l-1.289,0l0,-0.7119l3.4746,0l0,0.7119zm3.0703,1.7051l-1.6875,0l0,1.1426l1.9805,0l0,0.706l-2.8594,0l0,-4.2656l2.8535,0l0,0.7119l-1.9746,0l0,1.0166l1.6875,0l0,0.6885zm2.3877,0.2871l-0.7002,0l0,1.5615l-0.8789,0l0,-4.2656l1.585,0c0.5039,0 0.8925,0.1123 1.166,0.3369c0.2734,0.2246 0.4101,0.542 0.4101,0.9522c0,0.291 -0.0634,0.5341 -0.1904,0.7294c-0.125,0.1934 -0.3154,0.3477 -0.5713,0.4629l0.9229,1.7432l0,0.041l-0.9434,0l-0.7998,-1.5615zm-0.7002,-0.7119l0.709,0c0.2207,0 0.3916,-0.0557 0.5127,-0.167c0.1211,-0.1133 0.1816,-0.2686 0.1816,-0.4658c0,-0.2012 -0.0576,-0.3594 -0.1728,-0.4746c-0.1133,-0.1153 -0.2881,-0.1729 -0.5244,-0.1729l-0.7061,0l0,1.2803zm5.165,1.1543c0,-0.166 -0.0585,-0.293 -0.1757,-0.3809c-0.1172,-0.0898 -0.3282,-0.1836 -0.6328,-0.2812c-0.3047,-0.0996 -0.5459,-0.1973 -0.7237,-0.293c-0.4844,-0.2617 -0.7265,-0.6143 -0.7265,-1.0576c0,-0.2305 0.0644,-0.4356 0.1933,-0.6153c0.1309,-0.1816 0.3174,-0.3232 0.5596,-0.4248c0.2441,-0.1015 0.5176,-0.1523 0.8203,-0.1523c0.3047,0 0.5762,0.0557 0.8145,0.167c0.2382,0.1094 0.4228,0.2646 0.5537,0.4658c0.1328,0.2012 0.1992,0.4297 0.1992,0.6856l-0.8789,0c0,-0.1954 -0.0615,-0.3467 -0.1846,-0.4541c-0.123,-0.1094 -0.2959,-0.1641 -0.5186,-0.1641c-0.2148,0 -0.3818,0.0459 -0.5009,0.1377c-0.1192,0.0898 -0.1787,0.209 -0.1787,0.3574c0,0.1387 0.0693,0.2549 0.208,0.3486c0.1406,0.0938 0.3466,0.1817 0.6181,0.2637c0.5,0.1504 0.8643,0.3369 1.0928,0.5596c0.2285,0.2226 0.3428,0.5 0.3428,0.832c0,0.3692 -0.1397,0.6592 -0.419,0.8701c-0.2793,0.209 -0.6552,0.3135 -1.1279,0.3135c-0.3281,0 -0.6269,-0.0596 -0.8965,-0.1787c-0.2695,-0.1211 -0.4756,-0.2861 -0.6181,-0.4951c-0.1407,-0.209 -0.211,-0.4512 -0.211,-0.7266l0.8819,0c0,0.4707 0.2812,0.7061 0.8437,0.7061c0.209,0 0.3721,-0.042 0.4893,-0.126c0.1172,-0.0859 0.1757,-0.2051 0.1757,-0.3574z"/>
 </g>
</svg>