<svg width="10" height="15" viewBox="0 0 10 15" fill="none" xmlns="http://www.w3.org/2000/svg">
<path d="M8.5 0.0608826H1.5C0.672848 0.0608826 0 0.688985 0 1.46113V13.5966C0 14.3687 0.672848 14.9969 1.5 14.9969H8.5C9.32715 14.9969 10 14.3687 10 13.5966V1.46113C10 0.688985 9.32715 0.0608826 8.5 0.0608826ZM1.5 0.994381H8.5C8.77588 0.994381 9 1.2036 9 1.46113V11.2629H1V1.46113C1 1.2036 1.22412 0.994381 1.5 0.994381ZM8.5 14.0634H1.5C1.22412 14.0634 1 13.8541 1 13.5966V12.1964H9V13.5966C9 13.8541 8.77588 14.0634 8.5 14.0634Z" fill="#757575"/>
</svg>
